<svg xmlns="http://www.w3.org/2000/svg" viewBox="0 0 100 100" width="100" height="100">
  <defs>
    <linearGradient id="cloudGradient" x1="0%" y1="0%" x2="0%" y2="100%">
      <stop offset="0%" style="stop-color:#93C5FD;stop-opacity:1" />
      <stop offset="100%" style="stop-color:#4F46E5;stop-opacity:1" />
    </linearGradient>
  </defs>
  <path d="M80 45c0-11-9-20-20-20-2 0-4 0-6 1-3-8-11-14-20-14-12 0-22 10-22 22 0 2 0 4 1 6-6 2-10 8-10 15 0 9 7 16 16 16h56c8 0 15-7 15-15 0-8-6-14-14-15 2-2 4-4 4-6z" fill="url(#cloudGradient)" />
</svg>
